<svg width="33" height="33" viewBox="0 0 33 33" fill="none" xmlns="http://www.w3.org/2000/svg">
<path d="M30.0805 16.614C30.0805 23.9271 24.0568 29.8687 16.6097 29.8687C9.16263 29.8687 3.13894 23.9271 3.13894 16.614C3.13894 9.30092 9.16263 3.35925 16.6097 3.35925C24.0568 3.35925 30.0805 9.30092 30.0805 16.614Z" stroke="black"/>
<path fill-rule="evenodd" clip-rule="evenodd" d="M18.7053 0.571167H1.24187V1.57117H18.5656V1.93358C20.2711 1.93358 21.9595 2.26433 23.5344 2.90656C25.1092 3.54879 26.5391 4.4897 27.7428 5.67485C28.9466 6.85996 29.9006 8.26604 30.5512 9.8124C31.2017 11.3587 31.5364 13.0155 31.5364 14.6883H32.5364C32.5364 12.882 32.175 11.0934 31.4729 9.42461C30.7708 7.75581 29.7417 6.2395 28.4444 4.96225C27.1471 3.68501 25.607 2.67184 23.912 1.9806C22.26 1.30691 20.4924 0.951866 18.7053 0.93427V0.571167Z" fill="black"/>
<path fill-rule="evenodd" clip-rule="evenodd" d="M14.9332 31.5193C13.2043 31.5193 11.4726 31.0524 9.82911 30.3822C8.21114 29.7224 6.74153 28.7555 5.50397 27.537C4.26643 26.3186 3.28518 24.8726 2.61586 23.2817C1.94655 21.6908 1.60216 19.986 1.60216 18.2645H0.602161C0.602161 20.1195 0.973274 21.9561 1.69411 23.6695C2.41494 25.3828 3.47127 26.9391 4.80239 28.2496C6.1335 29.5602 7.71333 30.5993 9.45149 31.3082C11.1641 32.0066 13.0295 32.5193 14.9332 32.5193H32.257V31.5193H14.9332Z" fill="black"/>
<path fill-rule="evenodd" clip-rule="evenodd" d="M14.9204 10.3255C14.9204 10.0092 17.0765 9.21856 17.5385 9.53482C18.0005 9.85108 18.1546 12.5393 17.8465 13.3299C17.5385 14.1206 15.2284 14.1206 15.2284 14.1206C15.2284 14.1206 14.4583 14.2787 14.1503 13.6462C13.9391 13.2124 14.3798 11.9603 14.6776 11.1144C14.814 10.727 14.9204 10.4248 14.9204 10.3255ZM12.5819 14.6527C12.954 14.4473 13.4492 14.506 14.0674 14.5793C14.571 14.639 15.1561 14.7084 15.823 14.6527C16.4944 14.5965 17.0279 14.3881 17.5107 14.1996C18.0961 13.9709 18.607 13.7713 19.1991 13.9074C20.2794 14.1558 22.035 18.0062 21.0897 18.6272C20.1444 19.2483 15.1478 19.7451 14.3375 19.6209C13.5272 19.4967 12.0418 17.882 11.9067 17.3852C11.7717 16.8884 11.9067 15.0253 12.5819 14.6527ZM23.8062 19.4287C22.0826 19.1142 16.2851 20.0578 15.5017 20.215C15.2434 20.2669 14.423 20.1991 13.4505 20.1187C11.4733 19.9553 8.86738 19.7398 9.07743 20.3723C9.31925 21.1004 11.2405 22.2031 12.6813 23.0299C13.1076 23.2746 13.4919 23.4951 13.7781 23.6747C15.0316 24.461 19.8889 23.8319 21.6125 23.2029C23.3361 22.5739 25.5297 19.7432 23.8062 19.4287Z" fill="#AC48BC"/>
</svg>
