<svg width="71" height="71" viewBox="0 0 71 71" fill="none" xmlns="http://www.w3.org/2000/svg">
<path d="M66.0117 35.9331C66.0117 52.5642 52.4103 66.0537 35.623 66.0537C18.8356 66.0537 5.23427 52.5642 5.23427 35.9331C5.23427 19.302 18.8356 5.81238 35.623 5.81238C52.4103 5.81238 66.0117 19.302 66.0117 35.9331Z" stroke="black"/>
<path fill-rule="evenodd" clip-rule="evenodd" d="M40.2563 0.831726H1.6454V1.83173H39.9474V2.02545C43.8736 2.02545 47.7612 2.79208 51.3881 4.28136C55.015 5.77064 58.3099 7.95327 61.085 10.7042C63.86 13.4552 66.0608 16.7205 67.5621 20.3136C69.0635 23.9067 69.8361 27.7575 69.8361 31.6461H70.8361C70.8361 27.625 70.0371 23.6432 68.4848 19.9281C66.9325 16.213 64.6573 12.8374 61.789 9.99404C58.9207 7.15065 55.5156 4.89515 51.768 3.35631C48.1155 1.85655 44.2076 1.06615 40.2563 1.02698V0.831726Z" fill="black"/>
<path fill-rule="evenodd" clip-rule="evenodd" d="M31.9163 69.7282C27.9886 69.7282 24.0793 68.6611 20.4039 67.1519C16.7541 65.6533 13.4381 63.4568 10.6451 60.688C7.85218 57.9193 5.63692 54.6326 4.12561 51.0156C2.61431 47.3987 1.83652 43.5222 1.83652 39.6075H0.836517C0.836517 43.6548 1.64066 47.6623 3.20292 51.4012C4.76518 55.1401 7.0549 58.537 9.94113 61.3982C12.8274 64.2594 16.2536 66.5288 20.024 68.077C23.7688 69.6147 27.8125 70.7282 31.9163 70.7282H70.2183V69.7282H31.9163Z" fill="black"/>
<path fill-rule="evenodd" clip-rule="evenodd" d="M31.8879 21.9336C31.8879 21.2295 36.655 19.4694 37.6765 20.1734C38.6981 20.8775 39.0386 26.862 38.3575 28.6221C37.6765 30.3822 32.5689 30.3822 32.5689 30.3822C32.5689 30.3822 30.8664 30.7343 30.1854 29.3262C29.7183 28.3604 30.6928 25.573 31.3512 23.69L31.3512 23.69C31.6527 22.8275 31.8879 22.1547 31.8879 21.9336ZM26.7177 31.5668C27.5405 31.1096 28.6352 31.2403 30.0021 31.4035C31.1154 31.5364 32.4092 31.6909 33.8835 31.5668C35.368 31.4418 36.5475 30.9779 37.615 30.558C38.9093 30.049 40.0389 29.6047 41.3479 29.9077C43.7365 30.4607 47.618 39.0324 45.528 40.4149C43.438 41.7974 32.3907 42.9034 30.5992 42.6269C28.8078 42.3504 25.5234 38.7559 25.2249 37.6499C24.9263 36.5438 25.2249 32.3963 26.7177 31.5668ZM51.534 42.1991C47.7233 41.4989 34.9053 43.5995 33.1732 43.9495C32.6021 44.065 30.7882 43.914 28.638 43.735C24.2666 43.3712 18.505 42.8917 18.9695 44.2996C19.5041 45.9205 23.752 48.3753 26.9375 50.2161C27.88 50.7607 28.7296 51.2517 29.3624 51.6514C32.1339 53.4018 42.8732 52.0014 46.684 50.6011C50.4947 49.2008 55.3448 42.8992 51.534 42.1991Z" fill="#AC48BC"/>
</svg>
